999
"DXF R12 Output" (www.mydxf.blogspot.com)
 0 
SECTION
 2 
HEADER
 9 
$ACADVER
 1 
AC1009
 9 
$EXTMIN
 10 
 0 
 20 
 0 
 9 
$EXTMAX
 10 
 8.5 
 20 
 11 
 0 
ENDSEC
 0 
SECTION
 2 
ENTITIES
0
LINE
8
Layer 1
10
0.846666
20
317.647000
11
-0.846666
21
315.953000
0
LINE
8
Layer 1
10
0.000000
20
318.211000
11
0.000000
21
315.389000
0
LINE
8
Layer 1
10
2.257780
20
315.671000
11
1.128890
21
314.542110
0
LINE
8
Layer 1
10
1.693330
20
316.236000
11
0.564440
21
315.107110
0
LINE
8
Layer 1
10
1.128890
20
316.800000
11
0.000000
21
315.671110
0
LINE
8
Layer_1
10
131.231000
20
269.670000
11
131.115869
21
270.537807
0
LINE
8
Layer_1
10
131.115869
20
270.537807
11
130.785403
21
271.332989
0
LINE
8
Layer_1
10
130.785403
20
271.332989
11
130.261987
21
272.016771
0
LINE
8
Layer_1
10
130.261987
20
272.016771
11
129.568010
21
272.550380
0
LINE
8
Layer_1
10
129.568000
20
272.551000
11
128.758894
21
272.885197
0
LINE
8
Layer_1
10
128.758894
20
272.885197
11
127.905015
21
272.996596
0
LINE
8
Layer_1
10
127.905015
20
272.996596
11
127.051136
21
272.885197
0
LINE
8
Layer_1
10
127.051136
20
272.885197
11
126.242030
21
272.551000
0
LINE
8
Layer_1
10
126.242000
20
272.551000
11
125.548023
21
272.017391
0
LINE
8
Layer_1
10
125.548023
20
272.017391
11
125.024608
21
271.333608
0
LINE
8
Layer_1
10
125.024608
20
271.333608
11
124.694141
21
270.538427
0
LINE
8
Layer_1
10
124.694141
20
270.538427
11
124.579010
21
269.670620
0
LINE
8
Layer_1
10
124.579000
20
269.670000
11
124.694131
21
268.802193
0
LINE
8
Layer_1
10
124.694131
20
268.802193
11
125.024597
21
268.007011
0
LINE
8
Layer_1
10
125.024597
20
268.007011
11
125.548013
21
267.323229
0
LINE
8
Layer_1
10
125.548013
20
267.323229
11
126.241990
21
266.789620
0
LINE
8
Layer_1
10
126.242000
20
266.790000
11
127.051106
21
266.455803
0
LINE
8
Layer_1
10
127.051106
20
266.455803
11
127.904985
21
266.344404
0
LINE
8
Layer_1
10
127.904985
20
266.344404
11
128.758864
21
266.455803
0
LINE
8
Layer_1
10
128.758864
20
266.455803
11
129.567970
21
266.790000
0
LINE
8
Layer_1
10
129.568000
20
266.790000
11
130.261977
21
267.323609
0
LINE
8
Layer_1
10
130.261977
20
267.323609
11
130.785393
21
268.007392
0
LINE
8
Layer_1
10
130.785393
20
268.007392
11
131.115859
21
268.802573
0
LINE
8
Layer_1
10
131.115859
20
268.802573
11
131.230990
21
269.670380
0
LINE
8
Layer_1
10
104.027000
20
226.414000
11
103.912215
21
227.282133
0
LINE
8
Layer_1
10
103.912215
20
227.282133
11
103.581940
21
228.077680
0
LINE
8
Layer_1
10
103.581940
20
228.077680
11
103.058564
21
228.761822
0
LINE
8
Layer_1
10
103.058564
20
228.761822
11
102.364480
21
229.295740
0
LINE
8
Layer_1
10
102.364000
20
229.295000
11
101.554678
21
229.629400
0
LINE
8
Layer_1
10
101.554678
20
229.629400
11
100.700540
21
229.740867
0
LINE
8
Layer_1
10
100.700540
20
229.740867
11
99.846402
21
229.629400
0
LINE
8
Layer_1
10
99.846402
20
229.629400
11
99.037080
21
229.295000
0
LINE
8
Layer_1
10
99.037200
20
229.295000
11
98.343114
21
228.761081
0
LINE
8
Layer_1
10
98.343114
20
228.761081
11
97.819735
21
228.076939
0
LINE
8
Layer_1
10
97.819735
20
228.076939
11
97.489459
21
227.281393
0
LINE
8
Layer_1
10
97.489459
20
227.281393
11
97.374680
21
226.413260
0
LINE
8
Layer_1
10
97.374700
20
226.414000
11
97.489485
21
225.545867
0
LINE
8
Layer_1
10
97.489485
20
225.545867
11
97.819759
21
224.750320
0
LINE
8
Layer_1
10
97.819759
20
224.750320
11
98.343134
21
224.066178
0
LINE
8
Layer_1
10
98.343134
20
224.066178
11
99.037220
21
223.532260
0
LINE
8
Layer_1
10
99.037200
20
223.532000
11
99.846522
21
223.197598
0
LINE
8
Layer_1
10
99.846522
20
223.197598
11
100.700660
21
223.086131
0
LINE
8
Layer_1
10
100.700660
20
223.086131
11
101.554798
21
223.197598
0
LINE
8
Layer_1
10
101.554798
20
223.197598
11
102.364120
21
223.532000
0
LINE
8
Layer_1
10
102.364000
20
223.532000
11
103.058086
21
224.065919
0
LINE
8
Layer_1
10
103.058086
20
224.065919
11
103.581465
21
224.750061
0
LINE
8
Layer_1
10
103.581465
20
224.750061
11
103.911741
21
225.545607
0
LINE
8
Layer_1
10
103.911741
20
225.545607
11
104.026520
21
226.413740
0
LINE
8
Layer_1
10
96.423200
20
255.455000
11
95.919901
21
254.785203
0
LINE
8
Layer_1
10
95.919901
20
254.785203
11
95.550918
21
254.040751
0
LINE
8
Layer_1
10
95.550918
20
254.040751
11
95.323911
21
253.241486
0
LINE
8
Layer_1
10
95.323911
20
253.241486
11
95.246540
21
252.407250
0
LINE
8
Layer_1
10
112.876000
20
273.585000
11
96.423200
21
255.457000
0
LINE
8
Layer_1
10
95.246500
20
224.592000
11
95.373010
21
223.527974
0
LINE
8
Layer_1
10
95.373010
20
223.527974
11
95.739184
21
222.536145
0
LINE
8
Layer_1
10
95.739184
20
222.536145
11
96.324951
21
221.655983
0
LINE
8
Layer_1
10
96.324951
20
221.655983
11
97.110240
21
220.926960
0
LINE
8
Layer_1
10
97.110300
20
220.927000
11
98.044647
21
220.402455
0
LINE
8
Layer_1
10
98.044647
20
220.402455
11
99.061832
21
220.114106
0
LINE
8
Layer_1
10
99.061832
20
220.114106
11
100.118134
21
220.068987
0
LINE
8
Layer_1
10
100.118134
20
220.068987
11
101.169830
21
220.274130
0
LINE
8
Layer_1
10
95.246400
20
252.409000
11
95.246400
21
224.593000
0
LINE
8
Layer_1
10
114.964000
20
224.707000
11
115.737072
21
225.037295
0
LINE
8
Layer_1
10
115.737072
20
225.037295
11
116.430420
21
225.500180
0
LINE
8
Layer_1
10
116.430420
20
225.500180
11
117.027348
21
226.082135
0
LINE
8
Layer_1
10
117.027348
20
226.082135
11
117.511160
21
226.769640
0
LINE
8
Layer_1
10
101.170000
20
220.273000
11
114.964400
21
224.704990
0
LINE
8
Layer_1
10
131.774000
20
251.659000
11
132.221741
21
252.747317
0
LINE
8
Layer_1
10
132.221741
20
252.747317
11
132.374408
21
253.914190
0
LINE
8
Layer_1
10
117.511000
20
226.769000
11
131.774200
21
251.656900
0
LINE
8
Layer_1
10
132.375000
20
270.539000
11
132.287048
21
271.427949
0
LINE
8
Layer_1
10
132.287048
20
271.427949
11
132.029763
21
272.274631
0
LINE
8
Layer_1
10
132.029763
20
272.274631
11
131.612998
21
273.055255
0
LINE
8
Layer_1
10
131.612998
20
273.055255
11
131.046610
21
273.746030
0
LINE
8
Layer_1
10
131.046000
20
273.746000
11
130.355226
21
274.312392
0
LINE
8
Layer_1
10
130.355226
20
274.312392
11
129.574602
21
274.729159
0
LINE
8
Layer_1
10
129.574602
20
274.729159
11
128.727919
21
274.986447
0
LINE
8
Layer_1
10
128.727919
20
274.986447
11
127.838970
21
275.074400
0
LINE
8
Layer_1
10
132.375000
20
253.913000
11
132.375000
21
270.537000
0
LINE
8
Layer_1
10
116.235000
20
275.075000
11
115.291379
21
274.975780
0
LINE
8
Layer_1
10
115.291379
20
274.975780
11
114.398254
21
274.686438
0
LINE
8
Layer_1
10
114.398254
20
274.686438
11
113.583810
21
274.219457
0
LINE
8
Layer_1
10
113.583810
20
274.219457
11
112.876230
21
273.587320
0
LINE
8
Layer_1
10
127.839000
20
275.073000
11
116.235000
21
275.073000
 0 
ENDSEC
 0 
EOF